<svg xmlns="http://www.w3.org/2000/svg" version="1.1" xmlns:xlink="http://www.w3.org/1999/xlink" xmlns:svgjs="http://svgjs.com/svgjs" width="512" height="512" x="0" y="0" viewBox="0 0 512 512" style="enable-background:new 0 0 512 512" xml:space="preserve" class=""><g><path d="M294.818 347.63a77.9 77.9 0 1 0-77.636 0c-56.882 16.79-98.512 69.487-98.512 131.734a8 8 0 0 0 8 8h258.661a8 8 0 0 0 8-8c0-62.247-41.631-114.945-98.513-131.734zm-74.7 63.575-20.153-39.435q3.7-1.933 7.54-3.616l35.274 23.837zm35.23 25.936h1.3l8.233 34.223h-17.765zm3.161-16h-5.018l-7.024-11.3 9.533-8.082 9.533 8.083zm10.712-29.15 35.279-23.837q3.84 1.681 7.54 3.615l-20.153 39.436zM194.1 280.136a61.9 61.9 0 1 1 61.9 61.9 61.969 61.969 0 0 1-61.9-61.9zm91.415 81.533L256 381.615l-29.516-19.946a121.652 121.652 0 0 1 59.032 0zm-99.248 18.46 24.2 47.349a8 8 0 0 0 12.3 2.461l11.367-9.637 6.352 10.22-9.824 40.842h-95.731a121.331 121.331 0 0 1 51.337-91.235zm95.074 91.235-9.825-40.842 6.352-10.22 11.367 9.637a8 8 0 0 0 12.3-2.461l24.2-47.35a121.338 121.338 0 0 1 51.338 91.236zM222.488 93h4.18v62.422a13.913 13.913 0 0 0 13.9 13.9h30.871a13.912 13.912 0 0 0 13.9-13.9V93h4.176a12.5 12.5 0 0 0 9.885-20.145l-33.509-43.361a12.5 12.5 0 0 0-19.782 0l-33.5 43.36A12.495 12.495 0 0 0 222.488 93zM256 42.862 282.379 77h-5.047a8 8 0 0 0-8 8v68.319h-26.664V85a8 8 0 0 0-8-8h-5.047zM78.744 164.253a12.494 12.494 0 0 0 21.237 7.247l2.953-2.951 44.139 44.14a13.916 13.916 0 0 0 19.654 0l21.827-21.828a13.91 13.91 0 0 0 0-19.654l-44.14-44.14 2.948-2.947a12.5 12.5 0 0 0-7.245-21.242l-54.354-6.967A12.5 12.5 0 0 0 71.776 109.9zm52.27-46.41-3.569 3.569a8 8 0 0 0 0 11.313l48.31 48.31L156.9 199.89l-48.308-48.31a8 8 0 0 0-11.314 0l-3.57 3.569-5.485-42.792zm14.169 177.727V264.7a13.914 13.914 0 0 0-13.9-13.9h-62.42v-4.168a12.495 12.495 0 0 0-20.143-9.9L5.359 270.244a12.5 12.5 0 0 0 0 19.782l43.361 33.506a12.495 12.495 0 0 0 20.144-9.891v-4.174h62.423a13.913 13.913 0 0 0 13.896-13.897zm-16-2.1h-68.32a8 8 0 0 0-8 8v5.048l-34.137-26.382 34.137-26.38v5.044a8 8 0 0 0 8 8h68.32zm216.091-80.78a13.916 13.916 0 0 0 19.654 0l44.139-44.139 2.948 2.948a12.495 12.495 0 0 0 21.241-7.246l6.968-54.354a12.5 12.5 0 0 0-13.989-13.988l-54.352 6.968a12.495 12.495 0 0 0-7.249 21.238l2.951 2.951-44.139 44.14a13.91 13.91 0 0 0 0 19.654zm39.282-79.964a8 8 0 0 0 0-11.314l-3.57-3.569 42.792-5.486-5.485 42.792-3.568-3.568a8 8 0 0 0-11.315 0L355.1 199.89l-18.855-18.855zm122.086 137.519-43.361-33.507a12.495 12.495 0 0 0-20.144 9.892v4.17h-62.423a13.914 13.914 0 0 0-13.9 13.9v30.87a13.914 13.914 0 0 0 13.9 13.9h62.423v4.168a12.478 12.478 0 0 0 20.143 9.9l43.361-33.507a12.5 12.5 0 0 0 0-19.781zm-47.5 36.27v-5.047a8 8 0 0 0-8-8h-68.32V266.8h68.32a8 8 0 0 0 8-8v-5.047l34.137 26.379z" fill="#005221" data-original="#000000" opacity="1" class=""></path></g></svg>