<svg xmlns="http://www.w3.org/2000/svg" version="1.1" xmlns:xlink="http://www.w3.org/1999/xlink" xmlns:svgjs="http://svgjs.com/svgjs" width="512" height="512" x="0" y="0" viewBox="0 0 128 128" style="enable-background:new 0 0 512 512" xml:space="preserve" class=""><g><path fill="#005221" fill-rule="evenodd" d="M52.535 25.004a2 2 0 0 1 2.561-.045l12.436 10a2 2 0 1 1-2.507 3.117L53.89 29.121 33.76 46.52a2 2 0 0 1-3.307-1.514V34.83h-5.036v17.986a2 2 0 0 1-.692 1.513L12.368 65.006a2 2 0 0 1-2.616-3.026L21.416 51.9V32.829a2 2 0 0 1 2-2h9.036a2 2 0 0 1 2 2v7.804zm39.847 8.53c-13.11 0-23.738 10.627-23.738 23.737 0 13.11 10.628 23.738 23.738 23.738 13.109 0 23.737-10.628 23.737-23.738s-10.628-23.737-23.737-23.737zM64.644 57.27c0-15.319 12.419-27.737 27.738-27.737 15.319 0 27.737 12.418 27.737 27.737 0 15.319-12.418 27.738-27.737 27.738-15.32 0-27.738-12.419-27.738-27.738zm-12.117-18.82a2 2 0 0 1 2.565-.056l8.312 6.65a2 2 0 1 1-2.499 3.123L53.9 42.563 24.998 67.831v32.185h18.423V82.399a2 2 0 0 1 2-2h16.844a2 2 0 0 1 2 2v17.617h18.423V89.271a2 2 0 1 1 4 0v12.745a2 2 0 0 1-2 2H62.265a2 2 0 0 1-2-2V84.399H47.421v17.617a2 2 0 0 1-2 2H22.998a2 2 0 0 1-2-2V66.923a2 2 0 0 1 .684-1.506zm31.247 7.33a2.772 2.772 0 1 0 0 5.544 2.772 2.772 0 0 0 0-5.544zm-6.772 2.772a6.772 6.772 0 1 1 13.544 0 6.772 6.772 0 0 1-13.544 0zm25.704-6.267a2 2 0 0 1 .477 2.788L84.276 71.779a2 2 0 0 1-3.264-2.311l18.906-26.705a2 2 0 0 1 2.788-.477zm-1.973 21.492a2.773 2.773 0 1 0 0 5.545 2.773 2.773 0 0 0 0-5.545zM93.96 66.55a6.773 6.773 0 1 1 13.546 0 6.773 6.773 0 0 1-13.546 0z" clip-rule="evenodd" data-original="#000000" opacity="1" class=""></path></g></svg>