<svg xmlns="http://www.w3.org/2000/svg" version="1.1" xmlns:xlink="http://www.w3.org/1999/xlink" xmlns:svgjs="http://svgjs.com/svgjs" width="512" height="512" x="0" y="0" viewBox="0 0 512 512" style="enable-background:new 0 0 512 512" xml:space="preserve" class=""><g><path d="M496.124 456h-32V144h32a8 8 0 0 0 5.656-13.656l-120-120a8 8 0 0 0-11.312 0L340.812 40H216.124a8 8 0 0 0 0 16h108.688l-16 16H160.124V56h24a8 8 0 0 0 0-16h-32a8 8 0 0 0-8 8v32a8 8 0 0 0 8 8h16v16h-128a8 8 0 0 0-8 8v32a8 8 0 0 0 8 8h8v108.688l-37.656 37.657A8 8 0 0 0 16.124 312h32v144h-32a8 8 0 0 0-8 8v32a8 8 0 0 0 8 8h40a8 8 0 0 0 0-16h-32v-16h464v16h-400a8 8 0 0 0 0 16h408a8 8 0 0 0 8-8v-32a8 8 0 0 0-8-8Zm-48-192h-16v-64a56 56 0 1 0-112 0v64h-16V139.313l72-72 72 72Zm-64-103.192A40.116 40.116 0 0 1 415.316 192h-31.192Zm-16 31.192h-31.191a40.116 40.116 0 0 1 31.191-31.192Zm-32 16h32v56h-32Zm48 0h32v56h-32Zm-80 72h144v16h-144Zm72-252.688L476.812 128h-17.375L381.78 50.345a8 8 0 0 0-11.312 0L292.812 128h-17.375l42.338-42.339.012-.012 31.988-31.988.012-.012ZM292.812 88l-42.344 42.344A8 8 0 0 0 256.124 144h32v256a8 8 0 0 0 16 0v-88h144v144h-16V336a8 8 0 0 0-8-8h-96a8 8 0 0 0-8 8v120h-16v-24a8 8 0 0 0-16 0v24h-64V312h32a8 8 0 0 0 5.656-13.656l-77.656-77.657V88Zm123.312 272h-16v-16h16Zm-32 0h-16v-16h16Zm-32 0h-16v-16h16Zm-16 16h80v80h-80Zm-288-256h120v16h-120Zm16 32h104v52.687l-26.344-26.342a8 8 0 0 0-11.312 0l-66.344 66.343Zm72 43.312L236.812 296h-17.375l-77.657-77.655a8 8 0 0 0-11.312 0L52.812 296H35.437Zm-72 112 72-72 72 72V456h-24v-80a48 48 0 0 0-96 0v80h-24Zm104 148.688h-64v-80a32 32 0 0 1 64 0Z" data-name="Layer 14" fill="#005221" data-original="#000000" opacity="1" class=""></path></g></svg>